<svg xmlns="http://www.w3.org/2000/svg" width="41" height="41" viewBox="0 0 41 41" fill="none">
  <path d="M0 7C0 3.13401 3.13401 0 7 0H34C37.866 0 41 3.13401 41 7V34C41 37.866 37.866 41 34 41H7C3.13401 41 0 37.866 0 34V7Z" fill="#9F6AED"/>
  <path d="M15.925 12.2771L9.23132 19.1584C8.92335 19.475 8.92283 19.9744 9.23014 20.2917L15.9237 27.2011C16.4888 27.7845 17.4868 27.3902 17.4868 26.5836V23.0401H24.6979C26.3206 23.0401 27.8005 23.9545 28.5077 25.3941L29.9893 28.41C30.4792 29.4072 32 29.0633 32 27.9553V21.1029C32 18.4693 29.8341 16.3343 27.1623 16.3343H17.4868V12.8959C17.4868 12.0903 16.4907 11.6956 15.925 12.2771Z" fill="white"/>
</svg>